FILE "sl_coff.iso" BINARY
  TRACK 01 MODE1/2048
      INDEX 01 00:00:00
      POSTGAP 00:02:00
FILE "TRACK01.wav" WAVE
  TRACK 02 AUDIO
    PREGAP 00:02:00
    INDEX 01 00:00:00
FILE "TRACK02.wav" WAVE
  TRACK 03 AUDIO
    INDEX 01 00:00:00
